<svg width="14" height="14" viewBox="0 0 14 14" fill="none" xmlns="http://www.w3.org/2000/svg">
<g id="Frame" clip-path="url(#clip0_139_197)">
<path id="Vector" d="M12.8193 14H1.18183C0.525 14 0 13.475 0 12.8193V1.18183C0 0.525 0.525 0 1.18125 0H12.8625C13.475 0 14 0.525 14 1.18125V12.8187C14 13.475 13.475 14 12.8193 14ZM7 2.31875H5.25C3.63125 2.31875 2.31875 3.63125 2.31875 5.25V8.75C2.31875 10.3682 3.63125 11.6807 5.25 11.6807H8.75C10.3682 11.6807 11.6807 10.3682 11.6807 8.75V6.43125C11.6807 6.08125 11.4182 5.81875 11.0682 5.81875H10.5C10.1943 5.81875 9.93067 5.55625 9.93067 5.24942C9.93067 3.63008 8.61817 2.31758 7 2.31758V2.31875ZM8.79317 9.31875H5.25C4.94375 9.31875 4.68125 9.05625 4.68125 8.75C4.68125 8.44375 4.94375 8.18067 5.25 8.18067H8.79317C9.1 8.18067 9.36308 8.44317 9.36308 8.75C9.36308 9.05683 9.10058 9.31933 8.79433 9.31933L8.79317 9.31875ZM7.30567 4.68125C7.61308 4.68125 7.875 4.94375 7.875 5.25C7.875 5.55625 7.6125 5.81875 7.30625 5.81875H5.20625C4.9 5.81875 4.63692 5.55625 4.63692 5.25C4.63692 4.94375 4.89942 4.68125 5.20567 4.68125H7.30567Z" fill="#F0F0F3"/>
</g>
<defs>
<clipPath id="clip0_139_197">
<rect width="14" height="14" fill="white"/>
</clipPath>
</defs>
</svg>
