<svg width="24" height="24" viewBox="0 0 24 24" fill="none" xmlns="http://www.w3.org/2000/svg">
<g id="Frame" clip-path="url(#clip0_104_111)">
<path id="Vector" d="M11.466 0C12.346 1.423 11.186 3.306 10.259 4.358C9.36 5.378 8.267 6.231 7.274 7.158C6.208 8.154 5.183 9.202 4.307 10.371C2.554 12.71 1.48 15.651 2.269 18.57C3.057 21.486 5.583 23.342 8.436 23.999C6.996 23.377 5.65 21.796 5.646 20.179C5.643 18.414 6.761 16.917 8.151 15.933C7.984 16.565 7.893 17.143 8.306 17.707C8.49766 17.965 8.75932 18.1627 9.05994 18.2765C9.36056 18.3903 9.68751 18.4155 10.002 18.349C11.489 18.023 11.558 16.389 10.676 15.435C9.804 14.492 8.961 13.426 9.292 12.058C9.459 11.373 9.88 10.73 10.413 10.271C10.003 11.349 11.168 12.411 11.936 12.941C13.268 13.859 14.729 14.553 15.953 15.629C17.241 16.761 18.193 18.29 18 20.064C17.792 21.987 16.264 23.324 14.55 24C18.172 23.2 21.915 20.39 21.99 16.373C22.083 13.341 20.087 10.656 16.832 8.989C17.022 9.469 16.906 9.686 16.774 9.913C16.224 10.857 14.692 11.065 13.939 10.097C12.734 8.549 13.964 6.881 14.136 5.242C14.351 3.187 13.063 1.193 11.466 0Z" fill="#EF4223"/>
</g>
<defs>
<clipPath id="clip0_104_111">
<rect width="24" height="24" fill="white"/>
</clipPath>
</defs>
</svg>
