<svg width="74" height="74" viewBox="0 0 74 74" fill="none" xmlns="http://www.w3.org/2000/svg">
<g id="emojione:rocket" clip-path="url(#clip0_134_333)">
<g id="Group">
<path id="Vector" d="M34.2416 58.4866C34.2416 53.8904 33.8969 53.086 36.7695 53.086C39.6422 53.086 39.24 53.8329 39.2975 58.4866C39.2975 61.9337 36.7695 63.7722 36.7695 63.7722C36.7695 63.7722 34.2416 61.9337 34.2416 58.4866Z" fill="#FF9D27"/>
<path id="Vector_2" d="M40.9636 56.4758C39.4698 53.1435 39.4698 52.569 37.4015 53.1435C35.3332 53.7181 35.8503 54.2351 37.4015 57.5099C38.4931 59.9804 40.9061 60.7847 40.9061 60.7847C40.9061 60.7847 42.1701 58.9462 40.9636 56.4758Z" fill="#FF9D27"/>
</g>
<path id="Vector_3" d="M37.4015 55.5565C36.5972 53.718 36.3099 53.4308 37.4015 53.1435C38.5506 52.7988 38.5506 53.1435 39.3549 54.982C39.9869 56.3034 39.3549 57.395 39.3549 57.395C39.3549 57.395 38.091 56.9354 37.4015 55.5565Z" fill="#FDF516"/>
<path id="Vector_4" d="M36.0801 53.2009C34.0118 52.6264 34.0118 53.2009 32.5181 56.5332C31.4265 59.0036 32.5755 60.8421 32.5755 60.8421C32.5755 60.8421 34.9885 60.0378 36.0801 57.5673C37.5739 54.2351 38.091 53.718 36.0801 53.2009Z" fill="#FF9D27"/>
<g id="Group_2">
<path id="Vector_5" d="M36.0801 55.6139C36.8844 53.7755 37.1717 53.4882 36.0801 53.2009C34.9311 52.8562 34.9311 53.2009 34.1267 55.0394C33.4948 56.3608 34.1267 57.4524 34.1267 57.4524C34.1267 57.4524 35.4481 56.9353 36.0801 55.6139Z" fill="#FDF516"/>
<path id="Vector_6" d="M35.3332 56.131C35.3332 53.6031 35.1034 53.1434 36.7121 53.1434C38.3208 53.1434 38.091 53.6031 38.091 56.131C38.091 58.0844 36.6546 59.061 36.6546 59.061C36.6546 59.061 35.3907 58.0269 35.3332 56.131Z" fill="#FDF516"/>
</g>
<path id="Vector_7" d="M32.4606 47.9727C22.9235 45.5597 19.4764 53.9478 19.4764 53.9478C19.4764 53.9478 19.4764 37.0568 30.8519 37.0568L32.4606 47.9727Z" fill="#3BAACF"/>
<path id="Vector_8" d="M30.7945 40.7912L30.7945 37.1142C19.4764 37.0568 19.4764 53.9478 19.4764 53.9478C19.4764 53.9478 21.6021 41.2508 30.7945 40.7912Z" fill="#428BC1"/>
<path id="Vector_9" d="M41.0785 47.9727C50.6156 45.5597 54.0627 53.9478 54.0627 53.9478C54.0627 53.9478 54.0627 37.0568 42.6872 37.0568L41.0785 47.9727Z" fill="#3BAACF"/>
<path id="Vector_10" d="M42.7446 40.7912V37.1142C54.1202 37.1142 54.1202 54.0052 54.1202 54.0052C54.1202 54.0052 51.937 41.2508 42.7446 40.7912Z" fill="#428BC1"/>
<path id="Vector_11" d="M45.7896 26.4855C45.7321 39.872 41.9403 50.9028 36.7696 50.9028C31.5988 50.9028 27.807 39.872 27.7495 26.4855C27.7495 10.8585 36.7696 2.52788 36.7696 2.52788C36.7696 2.52788 45.7321 10.9159 45.7896 26.4855Z" fill="#C5D0D8"/>
<path id="Vector_12" d="M42.1701 26.3132C42.1701 39.6421 39.872 50.673 36.7696 50.673C33.6671 50.673 31.369 39.6421 31.369 26.3132C31.369 10.6861 36.7696 2.29807 36.7696 2.29807C36.7696 2.29807 42.1701 10.6861 42.1701 26.3132Z" fill="#DAE3EA"/>
<path id="Vector_13" d="M41.2509 50.0984C41.2509 50.673 40.7912 51.1326 40.2167 51.1326L33.3224 51.1326C32.7479 51.1326 32.2308 50.6155 32.2308 50.041V47.9727L41.1934 47.9727L41.2509 50.0984Z" fill="#C94747"/>
<path id="Vector_14" d="M39.24 50.0411C39.24 50.6156 39.0102 51.0752 38.6655 51.0752L34.7587 51.0752C34.414 51.0752 34.1842 50.6156 34.1842 50.0411V47.9728L39.24 47.9728L39.24 50.0411Z" fill="#F15744"/>
<path id="Vector_15" d="M39.6996 52.4541C39.6996 52.7988 39.2975 53.2009 38.9527 53.2009L34.4715 53.2009C34.1267 53.2009 33.8395 52.7988 33.8395 52.4541L33.8395 51.0752L39.6996 51.0752V52.4541Z" fill="#3E4347"/>
<path id="Vector_16" d="M38.7804 52.454C38.7804 52.7987 38.4931 53.2009 38.2633 53.2009L35.1609 53.2009C34.9311 53.2009 34.7013 52.8562 34.7587 52.454L34.7587 51.0751L38.7804 51.0751L38.7804 52.454Z" fill="#62727A"/>
<path id="Vector_17" d="M36.7695 2.52785C36.7695 2.52785 33.5522 5.51537 30.9668 11.3181L42.5722 11.3181C39.9869 5.51537 36.7695 2.52785 36.7695 2.52785Z" fill="#C94747"/>
<path id="Vector_18" d="M36.7696 2.52793C36.7696 2.52793 34.8162 5.51545 33.2075 11.3756L40.3316 11.3756C38.7229 5.51545 36.7696 2.52793 36.7696 2.52793Z" fill="#F15744"/>
<path id="Vector_19" d="M39.6422 26.428C41.2287 24.8415 41.2287 22.2693 39.6422 20.6828C38.0557 19.0963 35.4834 19.0963 33.8969 20.6828C32.3104 22.2693 32.3104 24.8415 33.8969 26.428C35.4834 28.0145 38.0557 28.0145 39.6422 26.428Z" fill="#EDF4F9"/>
<path id="Vector_20" d="M38.6655 25.4513C39.7126 24.4043 39.7126 22.7066 38.6655 21.6595C37.6184 20.6124 35.9207 20.6124 34.8736 21.6595C33.8265 22.7066 33.8265 24.4043 34.8736 25.4513C35.9207 26.4984 37.6184 26.4984 38.6655 25.4513Z" fill="#3BAACF"/>
<path id="Vector_21" d="M39.6422 37.9185C41.2287 36.332 41.2287 33.7598 39.6422 32.1733C38.0557 30.5868 35.4834 30.5868 33.8969 32.1733C32.3104 33.7598 32.3104 36.332 33.8969 37.9185C35.4834 39.505 38.0557 39.505 39.6422 37.9185Z" fill="#EDF4F9"/>
<path id="Vector_22" d="M38.6655 36.9418C39.7126 35.8947 39.7126 34.1971 38.6655 33.15C37.6184 32.1029 35.9207 32.1029 34.8736 33.15C33.8265 34.1971 33.8265 35.8947 34.8736 36.9418C35.9207 37.9889 37.6184 37.9889 38.6655 36.9418Z" fill="#3BAACF"/>
<g id="Group_3">
<path id="Vector_23" d="M32.0584 12.6395C32.0584 12.9842 31.7137 13.329 31.369 13.329C31.0243 13.329 30.6796 12.9842 30.6796 12.6395C30.6796 12.2948 31.0243 11.9501 31.369 11.9501C31.7137 11.9501 32.0584 12.2948 32.0584 12.6395Z" fill="white"/>
<path id="Vector_24" d="M34.4714 13.0991C34.7253 12.8453 34.7253 12.4337 34.4714 12.1799C34.2176 11.9261 33.8061 11.9261 33.5522 12.1799C33.2984 12.4337 33.2984 12.8453 33.5522 13.0991C33.8061 13.353 34.2176 13.353 34.4714 13.0991Z" fill="white"/>
<path id="Vector_25" d="M37.2292 13.0991C37.483 12.8453 37.483 12.4337 37.2292 12.1799C36.9753 11.9261 36.5638 11.9261 36.3099 12.1799C36.0561 12.4337 36.0561 12.8453 36.3099 13.0991C36.5638 13.353 36.9753 13.353 37.2292 13.0991Z" fill="white"/>
<path id="Vector_26" d="M39.9294 13.1566C40.1833 12.9028 40.1833 12.4912 39.9294 12.2374C39.6756 11.9836 39.264 11.9836 39.0102 12.2374C38.7563 12.4912 38.7563 12.9028 39.0102 13.1566C39.264 13.4105 39.6756 13.4105 39.9294 13.1566Z" fill="white"/>
<path id="Vector_27" d="M42.6297 13.0991C42.8835 12.8453 42.8835 12.4337 42.6297 12.1799C42.3758 11.9261 41.9643 11.9261 41.7104 12.1799C41.4566 12.4337 41.4566 12.8453 41.7104 13.0991C41.9643 13.353 42.3758 13.353 42.6297 13.0991Z" fill="white"/>
</g>
</g>
<defs>
<clipPath id="clip0_134_333">
<rect width="52" height="52" fill="white" transform="translate(0 36.7695) rotate(-45)"/>
</clipPath>
</defs>
</svg>
